<svg data-v-fde0c5aa="" xmlns="http://www.w3.org/2000/svg" viewBox="0 0 300 300" class="iconLeftSlogan"><!----><defs data-v-fde0c5aa=""><!----></defs><rect data-v-fde0c5aa="" fill="transparent" x="0" y="0" width="300px" height="300px" class="logo-background-square"></rect><defs data-v-fde0c5aa=""><!----></defs><g data-v-fde0c5aa="" id="e0210062-df9f-4993-89b9-fd4265e3063c" fill="#000000" transform="matrix(1.2935298977115508,0,0,1.2935298977115508,122.32961567582124,130.07862527746232)"><path d="M2.95 12.67L0.94 12.67L0.94 3.04L2.95 3.04L2.95 12.67ZM11.13 12.67L9.22 12.67L9.22 8.52L9.22 8.52Q9.22 6.58 8.10 6.58L8.10 6.58L8.10 6.58Q7.52 6.58 7.15 7.17L7.15 7.17L7.15 7.17Q6.79 7.77 6.79 8.71L6.79 8.71L6.79 12.67L4.87 12.67L4.87 6.93L4.87 6.93Q4.87 6.34 4.85 5.96L4.85 5.96L4.85 5.96Q4.83 5.58 4.81 5.28L4.81 5.28L6.64 5.28L6.64 5.28Q6.67 5.41 6.70 5.97L6.70 5.97L6.70 5.97Q6.73 6.54 6.73 6.75L6.73 6.75L6.76 6.75L6.76 6.75Q7.12 5.90 7.65 5.52L7.65 5.52L7.65 5.52Q8.18 5.13 8.91 5.13L8.91 5.13L8.91 5.13Q10.61 5.13 10.97 6.75L10.97 6.75L11.01 6.75L11.01 6.75Q11.39 5.89 11.92 5.51L11.92 5.51L11.92 5.51Q12.44 5.13 13.25 5.13L13.25 5.13L13.25 5.13Q14.33 5.13 14.90 5.87L14.90 5.87L14.90 5.87Q15.47 6.60 15.47 7.98L15.47 7.98L15.47 12.67L13.56 12.67L13.56 8.52L13.56 8.52Q13.56 6.58 12.44 6.58L12.44 6.58L12.44 6.58Q11.88 6.58 11.52 7.12L11.52 7.12L11.52 7.12Q11.16 7.66 11.13 8.62L11.13 8.62L11.13 12.67ZM19.24 12.67L17.32 12.67L17.32 7.01L17.32 7.01Q17.32 6.41 17.30 6.00L17.30 6.00L17.30 6.00Q17.28 5.59 17.26 5.28L17.26 5.28L19.09 5.28L19.09 5.28Q19.11 5.40 19.15 6.03L19.15 6.03L19.15 6.03Q19.18 6.65 19.18 6.86L19.18 6.86L19.21 6.86L19.21 6.86Q19.49 6.08 19.71 5.76L19.71 5.76L19.71 5.76Q19.93 5.44 20.23 5.29L20.23 5.29L20.23 5.29Q20.53 5.13 20.98 5.13L20.98 5.13L20.98 5.13Q21.35 5.13 21.57 5.24L21.57 5.24L21.57 6.84L21.57 6.84Q21.11 6.74 20.75 6.74L20.75 6.74L20.75 6.74Q20.04 6.74 19.64 7.32L19.64 7.32L19.64 7.32Q19.24 7.90 19.24 9.04L19.24 9.04L19.24 12.67ZM24.47 12.81L24.47 12.81L24.47 12.81Q23.40 12.81 22.80 12.23L22.80 12.23L22.80 12.23Q22.20 11.64 22.20 10.58L22.20 10.58L22.20 10.58Q22.20 9.43 22.94 8.83L22.94 8.83L22.94 8.83Q23.69 8.23 25.12 8.22L25.12 8.22L26.71 8.19L26.71 7.81L26.71 7.81Q26.71 7.09 26.46 6.74L26.46 6.74L26.46 6.74Q26.20 6.38 25.63 6.38L25.63 6.38L25.63 6.38Q25.09 6.38 24.85 6.63L24.85 6.63L24.85 6.63Q24.60 6.87 24.53 7.43L24.53 7.43L22.53 7.33L22.53 7.33Q22.72 6.25 23.52 5.70L23.52 5.70L23.52 5.70Q24.32 5.14 25.71 5.14L25.71 5.14L25.71 5.14Q27.11 5.14 27.87 5.83L27.87 5.83L27.87 5.83Q28.63 6.52 28.63 7.79L28.63 7.79L28.63 10.49L28.63 10.49Q28.63 11.11 28.77 11.34L28.77 11.34L28.77 11.34Q28.91 11.58 29.24 11.58L29.24 11.58L29.24 11.58Q29.46 11.58 29.66 11.54L29.66 11.54L29.66 12.58L29.66 12.58Q29.49 12.62 29.35 12.65L29.35 12.65L29.35 12.65Q29.22 12.69 29.08 12.71L29.08 12.71L29.08 12.71Q28.94 12.73 28.79 12.74L28.79 12.74L28.79 12.74Q28.64 12.76 28.43 12.76L28.43 12.76L28.43 12.76Q27.71 12.76 27.36 12.40L27.36 12.40L27.36 12.40Q27.02 12.04 26.95 11.35L26.95 11.35L26.91 11.35L26.91 11.35Q26.10 12.81 24.47 12.81ZM26.71 9.63L26.71 9.25L25.72 9.26L25.72 9.26Q25.05 9.29 24.77 9.41L24.77 9.41L24.77 9.41Q24.49 9.53 24.35 9.78L24.35 9.78L24.35 9.78Q24.20 10.02 24.20 10.43L24.20 10.43L24.20 10.43Q24.20 10.96 24.44 11.21L24.44 11.21L24.44 11.21Q24.68 11.47 25.09 11.47L25.09 11.47L25.09 11.47Q25.54 11.47 25.91 11.22L25.91 11.22L25.91 11.22Q26.28 10.98 26.50 10.54L26.50 10.54L26.50 10.54Q26.71 10.11 26.71 9.63L26.71 9.63ZM37.26 12.67L35.34 12.67L35.34 8.52L35.34 8.52Q35.34 6.58 34.02 6.58L34.02 6.58L34.02 6.58Q33.33 6.58 32.90 7.17L32.90 7.17L32.90 7.17Q32.47 7.77 32.47 8.71L32.47 8.71L32.47 12.67L30.55 12.67L30.55 6.93L30.55 6.93Q30.55 6.34 30.53 5.96L30.53 5.96L30.53 5.96Q30.52 5.58 30.50 5.28L30.50 5.28L32.33 5.28L32.33 5.28Q32.35 5.41 32.38 5.97L32.38 5.97L32.38 5.97Q32.42 6.54 32.42 6.75L32.42 6.75L32.44 6.75L32.44 6.75Q32.83 5.90 33.42 5.52L33.42 5.52L33.42 5.52Q34.01 5.13 34.82 5.13L34.82 5.13L34.82 5.13Q36.00 5.13 36.63 5.86L36.63 5.86L36.63 5.86Q37.26 6.58 37.26 7.98L37.26 7.98L37.26 12.67ZM52.74 12.67L50.95 12.67L50.95 6.84L50.95 6.84Q50.95 6.64 50.95 6.44L50.95 6.44L50.95 6.44Q50.96 6.24 51.02 4.74L51.02 4.74L51.02 4.74Q50.53 6.58 50.30 7.30L50.30 7.30L48.56 12.67L47.13 12.67L45.39 7.30L44.66 4.74L44.66 4.74Q44.74 6.32 44.74 6.84L44.74 6.84L44.74 12.67L42.95 12.67L42.95 3.04L45.65 3.04L47.37 8.43L47.52 8.95L47.85 10.24L48.28 8.70L50.05 3.04L52.74 3.04L52.74 12.67ZM61.68 8.97L61.68 8.97L61.68 8.97Q61.68 10.77 60.68 11.79L60.68 11.79L60.68 11.79Q59.68 12.81 57.92 12.81L57.92 12.81L57.92 12.81Q56.19 12.81 55.21 11.79L55.21 11.79L55.21 11.79Q54.22 10.76 54.22 8.97L54.22 8.97L54.22 8.97Q54.22 7.18 55.21 6.16L55.21 6.16L55.21 6.16Q56.19 5.14 57.96 5.14L57.96 5.14L57.96 5.14Q59.77 5.14 60.73 6.13L60.73 6.13L60.73 6.13Q61.68 7.12 61.68 8.97ZM59.67 8.97L59.67 8.97L59.67 8.97Q59.67 7.65 59.24 7.05L59.24 7.05L59.24 7.05Q58.81 6.46 57.99 6.46L57.99 6.46L57.99 6.46Q56.24 6.46 56.24 8.97L56.24 8.97L56.24 8.97Q56.24 10.21 56.67 10.85L56.67 10.85L56.67 10.85Q57.09 11.50 57.90 11.50L57.90 11.50L57.90 11.50Q59.67 11.50 59.67 8.97ZM65.07 6.75L65.10 6.75L65.10 6.75Q65.49 5.91 66.08 5.52L66.08 5.52L66.08 5.52Q66.66 5.14 67.48 5.14L67.48 5.14L67.48 5.14Q68.65 5.14 69.28 5.87L69.28 5.87L69.28 5.87Q69.91 6.59 69.91 7.98L69.91 7.98L69.91 12.67L68.00 12.67L68.00 8.53L68.00 8.53Q68.00 6.58 66.68 6.58L66.68 6.58L66.68 6.58Q65.98 6.58 65.55 7.18L65.55 7.18L65.55 7.18Q65.13 7.78 65.13 8.72L65.13 8.72L65.13 12.67L63.21 12.67L63.21 2.53L65.13 2.53L65.13 5.30L65.13 5.30Q65.13 6.04 65.07 6.75L65.07 6.75ZM73.47 12.81L73.47 12.81L73.47 12.81Q72.39 12.81 71.79 12.23L71.79 12.23L71.79 12.23Q71.19 11.64 71.19 10.58L71.19 10.58L71.19 10.58Q71.19 9.43 71.94 8.83L71.94 8.83L71.94 8.83Q72.69 8.23 74.11 8.22L74.11 8.22L75.70 8.19L75.70 7.81L75.70 7.81Q75.70 7.09 75.45 6.74L75.45 6.74L75.45 6.74Q75.20 6.38 74.62 6.38L74.62 6.38L74.62 6.38Q74.09 6.38 73.84 6.63L73.84 6.63L73.84 6.63Q73.59 6.87 73.53 7.43L73.53 7.43L71.52 7.33L71.52 7.33Q71.71 6.25 72.51 5.70L72.51 5.70L72.51 5.70Q73.32 5.14 74.70 5.14L74.70 5.14L74.70 5.14Q76.10 5.14 76.86 5.83L76.86 5.83L76.86 5.83Q77.62 6.52 77.62 7.79L77.62 7.79L77.62 10.49L77.62 10.49Q77.62 11.11 77.76 11.34L77.76 11.34L77.76 11.34Q77.90 11.58 78.23 11.58L78.23 11.58L78.23 11.58Q78.45 11.58 78.65 11.54L78.65 11.54L78.65 12.58L78.65 12.58Q78.48 12.62 78.35 12.65L78.35 12.65L78.35 12.65Q78.21 12.69 78.07 12.71L78.07 12.71L78.07 12.71Q77.94 12.73 77.78 12.74L77.78 12.74L77.78 12.74Q77.63 12.76 77.42 12.76L77.42 12.76L77.42 12.76Q76.70 12.76 76.35 12.40L76.35 12.40L76.35 12.40Q76.01 12.04 75.94 11.35L75.94 11.35L75.90 11.35L75.90 11.35Q75.09 12.81 73.47 12.81ZM75.70 9.63L75.70 9.25L74.72 9.26L74.72 9.26Q74.05 9.29 73.77 9.41L73.77 9.41L73.77 9.41Q73.49 9.53 73.34 9.78L73.34 9.78L73.34 9.78Q73.19 10.02 73.19 10.43L73.19 10.43L73.19 10.43Q73.19 10.96 73.44 11.21L73.44 11.21L73.44 11.21Q73.68 11.47 74.08 11.47L74.08 11.47L74.08 11.47Q74.53 11.47 74.90 11.22L74.90 11.22L74.90 11.22Q75.28 10.98 75.49 10.54L75.49 10.54L75.49 10.54Q75.70 10.11 75.70 9.63L75.70 9.63ZM85.80 12.67L83.90 12.67L83.90 8.52L83.90 8.52Q83.90 6.58 82.78 6.58L82.78 6.58L82.78 6.58Q82.20 6.58 81.83 7.17L81.83 7.17L81.83 7.17Q81.46 7.77 81.46 8.71L81.46 8.71L81.46 12.67L79.54 12.67L79.54 6.93L79.54 6.93Q79.54 6.34 79.53 5.96L79.53 5.96L79.53 5.96Q79.51 5.58 79.49 5.28L79.49 5.28L81.32 5.28L81.32 5.28Q81.34 5.41 81.38 5.97L81.38 5.97L81.38 5.97Q81.41 6.54 81.41 6.75L81.41 6.75L81.44 6.75L81.44 6.75Q81.79 5.90 82.32 5.52L82.32 5.52L82.32 5.52Q82.85 5.13 83.59 5.13L83.59 5.13L83.59 5.13Q85.29 5.13 85.65 6.75L85.65 6.75L85.69 6.75L85.69 6.75Q86.06 5.89 86.59 5.51L86.59 5.51L86.59 5.51Q87.12 5.13 87.93 5.13L87.93 5.13L87.93 5.13Q89.01 5.13 89.58 5.87L89.58 5.87L89.58 5.87Q90.15 6.60 90.15 7.98L90.15 7.98L90.15 12.67L88.24 12.67L88.24 8.52L88.24 8.52Q88.24 6.58 87.12 6.58L87.12 6.58L87.12 6.58Q86.56 6.58 86.20 7.12L86.20 7.12L86.20 7.12Q85.84 7.66 85.80 8.62L85.80 8.62L85.80 12.67ZM95.02 12.81L95.02 12.81L95.02 12.81Q93.35 12.81 92.46 11.82L92.46 11.82L92.46 11.82Q91.56 10.83 91.56 8.94L91.56 8.94L91.56 8.94Q91.56 7.11 92.47 6.13L92.47 6.13L92.47 6.13Q93.38 5.14 95.05 5.14L95.05 5.14L95.05 5.14Q96.64 5.14 97.48 6.20L97.48 6.20L97.48 6.20Q98.32 7.25 98.32 9.29L98.32 9.29L98.32 9.34L93.58 9.34L93.58 9.34Q93.58 10.42 93.98 10.98L93.98 10.98L93.98 10.98Q94.38 11.53 95.12 11.53L95.12 11.53L95.12 11.53Q96.13 11.53 96.40 10.64L96.40 10.64L98.21 10.80L98.21 10.80Q97.43 12.81 95.02 12.81ZM95.02 6.35L95.02 6.35L95.02 6.35Q94.34 6.35 93.98 6.82L93.98 6.82L93.98 6.82Q93.61 7.29 93.59 8.14L93.59 8.14L96.46 8.14L96.46 8.14Q96.41 7.25 96.03 6.80L96.03 6.80L96.03 6.80Q95.66 6.35 95.02 6.35ZM106.43 12.67L104.57 12.67L104.57 12.67Q104.54 12.57 104.50 12.16L104.50 12.16L104.50 12.16Q104.47 11.74 104.47 11.47L104.47 11.47L104.44 11.47L104.44 11.47Q103.82 12.81 102.07 12.81L102.07 12.81L102.07 12.81Q100.78 12.81 100.08 11.80L100.08 11.80L100.08 11.80Q99.37 10.79 99.37 8.98L99.37 8.98L99.37 8.98Q99.37 7.14 100.12 6.14L100.12 6.14L100.12 6.14Q100.86 5.14 102.22 5.14L102.22 5.14L102.22 5.14Q103.00 5.14 103.57 5.47L103.57 5.47L103.57 5.47Q104.15 5.80 104.45 6.45L104.45 6.45L104.47 6.45L104.45 5.23L104.45 2.53L106.37 2.53L106.37 11.06L106.37 11.06Q106.37 11.74 106.43 12.67L106.43 12.67ZM104.48 8.93L104.48 8.93L104.48 8.93Q104.48 7.74 104.08 7.09L104.08 7.09L104.08 7.09Q103.68 6.45 102.90 6.45L102.90 6.45L102.90 6.45Q102.13 6.45 101.75 7.07L101.75 7.07L101.75 7.07Q101.38 7.70 101.38 8.98L101.38 8.98L101.38 8.98Q101.38 11.50 102.89 11.50L102.89 11.50L102.89 11.50Q103.65 11.50 104.06 10.83L104.06 10.83L104.06 10.83Q104.48 10.17 104.48 8.93Z"></path></g><defs data-v-fde0c5aa=""><linearGradient data-v-fde0c5aa="" gradientTransform="rotate(25)" id="5227ee07-b5ac-4380-98a0-9c41b08b487b" x1="0%" y1="0%" x2="100%" y2="0%"><stop data-v-fde0c5aa="" offset="0%" stop-color="#64a19d" stop-opacity="1"></stop><stop data-v-fde0c5aa="" offset="100%" stop-color="#9FD89B" stop-opacity="1"></stop></linearGradient></defs><g data-v-fde0c5aa="" id="0f3bb30f-8f0e-4763-af5b-d7de902d0300" stroke="none" fill="url(#5227ee07-b5ac-4380-98a0-9c41b08b487b)" transform="matrix(0.7838392650409608,0,0,0.7838392650409608,36.0808036747952,110.80786780676515)"><path d="M23.943 30.807L5 50.001l18.942 19.192a4.386 4.386 0 0 0 6.258.002 4.522 4.522 0 0 0 .002-6.338L18.193 50.695l-3.624 2.289 15.634-15.841a4.494 4.494 0 0 0 1.295-3.168 4.5 4.5 0 0 0-1.297-3.17 4.387 4.387 0 0 0-6.258.002zM76.057 30.808L95 50.001 76.058 69.193a4.386 4.386 0 0 1-6.258.002 4.522 4.522 0 0 1-.002-6.338l12.009-12.161 3.624 2.289-15.635-15.841a4.494 4.494 0 0 1-1.295-3.168 4.5 4.5 0 0 1 1.297-3.17 4.386 4.386 0 0 1 6.259.002zM60.899 32.352a4.492 4.492 0 0 0-2.366-2.476 4.386 4.386 0 0 0-5.825 2.288l-13.82 32.062a4.496 4.496 0 0 0-.048 3.422 4.492 4.492 0 0 0 2.366 2.476 4.386 4.386 0 0 0 5.825-2.288l13.82-32.062a4.496 4.496 0 0 0 .048-3.422z"></path></g><defs data-v-fde0c5aa=""><!----></defs><g data-v-fde0c5aa="" id="c4b684ec-a877-435e-8899-4dac83766995" fill="#000000" transform="matrix(0.5616796936487413,0,0,0.5616796936487413,123.38826353879526,154.77835078133808)"><path d="M0.28 3.71L0.28 3.71L0.28 3.71Q0.28 3.51 0.66 3.51L0.66 3.51L0.66 3.51Q0.74 3.51 1.20 3.54L1.20 3.54L1.20 3.54Q1.65 3.56 2.20 3.56L2.20 3.56L2.20 3.56Q2.59 3.56 2.98 3.54L2.98 3.54L2.98 3.54Q3.37 3.51 3.40 3.51L3.40 3.51L3.40 3.51Q3.53 3.51 3.56 3.55L3.56 3.55L3.56 3.55Q3.60 3.58 3.60 3.68L3.60 3.68L3.60 3.68Q3.60 3.77 3.30 3.92L3.30 3.92L3.30 3.92Q3.00 4.07 3.00 4.34L3.00 4.34L3.00 4.34Q3.00 4.47 3.05 4.65L3.05 4.65L3.05 4.65Q3.11 4.83 3.28 5.22L3.28 5.22L3.28 5.22Q3.44 5.61 3.63 6.03L3.63 6.03L3.63 6.03Q3.82 6.45 4.21 7.33L4.21 7.33L4.21 7.33Q4.61 8.20 4.98 9.07L4.98 9.07L4.98 9.07Q5.08 9.30 5.27 9.74L5.27 9.74L5.27 9.74Q5.46 10.18 5.58 10.46L5.58 10.46L5.58 10.46Q5.70 10.74 5.84 11.05L5.84 11.05L5.84 11.05Q5.98 11.37 6.07 11.52L6.07 11.52L6.07 11.52Q6.16 11.68 6.20 11.68L6.20 11.68L6.20 11.68Q6.26 11.68 6.65 10.81L6.65 10.81L6.65 10.81Q7.04 9.94 7.35 9.17L7.35 9.17L7.35 9.17Q7.41 9.04 7.48 8.89L7.48 8.89L7.48 8.89Q7.56 8.74 7.59 8.63L7.59 8.63L7.59 8.63Q7.63 8.53 7.63 8.41L7.63 8.41L7.63 8.41Q7.63 8.25 6.79 6.36L6.79 6.36L6.79 6.36Q5.95 4.48 5.71 4.21L5.71 4.21L5.71 4.21Q5.66 4.14 5.60 4.10L5.60 4.10L5.60 4.10Q5.54 4.06 5.50 4.02L5.50 4.02L5.50 4.02Q5.45 3.99 5.41 3.97L5.41 3.97L5.41 3.97Q5.38 3.95 5.32 3.94L5.32 3.94L5.32 3.94Q5.26 3.93 5.24 3.93L5.24 3.93L5.24 3.93Q5.22 3.93 5.16 3.93L5.16 3.93L5.16 3.93Q5.10 3.92 5.08 3.92L5.08 3.92L5.08 3.92Q4.69 3.88 4.61 3.84L4.61 3.84L4.61 3.84Q4.52 3.81 4.52 3.70L4.52 3.70L4.52 3.70Q4.52 3.50 4.93 3.50L4.93 3.50L4.93 3.50Q5.01 3.50 5.47 3.53L5.47 3.53L5.47 3.53Q5.94 3.56 6.47 3.56L6.47 3.56L6.47 3.56Q6.50 3.56 6.85 3.53L6.85 3.53L6.85 3.53Q7.20 3.50 7.39 3.50L7.39 3.50L7.39 3.50Q7.81 3.50 7.81 3.61L7.81 3.61L7.81 3.61Q7.81 3.70 7.66 3.78L7.66 3.78L7.66 3.78Q7.50 3.86 7.36 4.00L7.36 4.00L7.36 4.00Q7.21 4.13 7.21 4.33L7.21 4.33L7.21 4.33Q7.21 4.59 7.64 5.57L7.64 5.57L7.64 5.57Q7.67 5.63 7.83 6.03L7.83 6.03L7.83 6.03Q7.99 6.44 8.12 6.71L8.12 6.71L8.12 6.71Q8.25 6.99 8.30 6.99L8.30 6.99L8.30 6.99Q8.41 6.99 8.86 5.76L8.86 5.76L8.86 5.76Q9.31 4.54 9.31 4.31L9.31 4.31L9.31 4.31Q9.31 4.06 9.10 3.96L9.10 3.96L9.10 3.96Q8.89 3.85 8.68 3.80L8.68 3.80L8.68 3.80Q8.47 3.75 8.47 3.64L8.47 3.64L8.47 3.64Q8.47 3.49 8.78 3.49L8.78 3.49L8.78 3.49Q8.86 3.49 9.20 3.50L9.20 3.50L9.20 3.50Q9.53 3.51 9.67 3.51L9.67 3.51L9.91 3.51L9.91 3.51Q10.11 3.51 10.65 3.47L10.65 3.47L10.78 3.47L10.78 3.47Q10.96 3.47 10.96 3.61L10.96 3.61L10.96 3.61Q10.96 3.75 10.70 3.84L10.70 3.84L10.70 3.84Q10.43 3.92 10.33 4.02L10.33 4.02L10.33 4.02Q10.11 4.24 9.94 4.66L9.94 4.66L9.94 4.66Q9.65 5.38 9.24 6.33L9.24 6.33L9.24 6.33Q8.82 7.31 8.75 7.50L8.75 7.50L8.75 7.50Q8.68 7.70 8.68 7.85L8.68 7.85L8.68 7.85Q8.68 7.97 9.53 9.87L9.53 9.87L9.53 9.87Q10.39 11.77 10.54 11.77L10.54 11.77L10.54 11.77Q10.71 11.77 12.17 8.24L12.17 8.24L12.17 8.24Q13.64 4.70 13.64 4.35L13.64 4.35L13.64 4.35Q13.64 4.13 13.47 4.01L13.47 4.01L13.47 4.01Q13.31 3.89 13.12 3.87L13.12 3.87L13.12 3.87Q12.92 3.85 12.76 3.80L12.76 3.80L12.76 3.80Q12.60 3.75 12.60 3.64L12.60 3.64L12.60 3.64Q12.60 3.54 12.64 3.52L12.64 3.52L12.64 3.52Q12.68 3.50 12.87 3.50L12.87 3.50L12.87 3.50Q12.91 3.50 13.19 3.51L13.19 3.51L13.19 3.51Q13.47 3.51 13.75 3.51L13.75 3.51L13.75 3.51Q14 3.51 14.31 3.50L14.31 3.50L14.31 3.50Q14.63 3.49 14.99 3.49L14.99 3.49L14.99 3.49Q15.27 3.49 15.27 3.68L15.27 3.68L15.27 3.68Q15.27 3.78 15.20 3.84L15.20 3.84L15.20 3.84Q15.12 3.89 14.97 3.98L14.97 3.98L14.97 3.98Q14.81 4.06 14.70 4.17L14.70 4.17L14.70 4.17Q14.63 4.24 14.58 4.31L14.58 4.31L14.58 4.31Q14.53 4.38 14.48 4.49L14.48 4.49L14.48 4.49Q14.42 4.59 14.38 4.66L14.38 4.66L14.38 4.66Q14.35 4.73 14.27 4.91L14.27 4.91L14.27 4.91Q14.20 5.08 14.15 5.18L14.15 5.18L14.15 5.18Q13.08 7.59 11.75 10.58L11.75 10.58L11.75 10.58Q10.68 13.01 10.49 13.41L10.49 13.41L10.49 13.41Q10.29 13.82 10.18 13.82L10.18 13.82L10.18 13.82Q10.11 13.82 10.01 13.64L10.01 13.64L10.01 13.64Q9.91 13.47 9.74 13.05L9.74 13.05L9.74 13.05Q9.56 12.64 9.53 12.57L9.53 12.57L9.53 12.57Q9.39 12.26 9.16 11.72L9.16 11.72L9.16 11.72Q8.93 11.17 8.77 10.79L8.77 10.79L8.77 10.79Q8.61 10.42 8.44 10.02L8.44 10.02L8.44 10.02Q8.27 9.63 8.16 9.43L8.16 9.43L8.16 9.43Q8.05 9.23 8.01 9.23L8.01 9.23L8.01 9.23Q7.87 9.23 7.06 11.16L7.06 11.16L7.06 11.16Q6.26 13.09 6.20 13.31L6.20 13.31L6.20 13.31Q6.19 13.37 6.17 13.43L6.17 13.43L6.17 13.43Q6.15 13.48 6.13 13.52L6.13 13.52L6.13 13.52Q6.12 13.57 6.10 13.61L6.10 13.61L6.10 13.61Q6.09 13.65 6.08 13.68L6.08 13.68L6.08 13.68Q6.06 13.71 6.05 13.73L6.05 13.73L6.05 13.73Q6.05 13.76 6.03 13.78L6.03 13.78L6.03 13.78Q6.02 13.80 6.01 13.82L6.01 13.82L6.01 13.82Q5.99 13.83 5.98 13.84L5.98 13.84L5.98 13.84Q5.96 13.85 5.95 13.85L5.95 13.85L5.95 13.85Q5.94 13.86 5.91 13.86L5.91 13.86L5.91 13.86Q5.78 13.86 5.60 13.46L5.60 13.46L5.60 13.46Q5.42 13.06 4.94 11.89L4.94 11.89L4.94 11.89Q4.47 10.72 3.98 9.65L3.98 9.65L3.98 9.65Q3.16 7.87 2.25 5.63L2.25 5.63L2.25 5.63Q1.99 4.96 1.68 4.57L1.68 4.57L1.68 4.57Q1.37 4.19 1.13 4.09L1.13 4.09L1.13 4.09Q0.90 3.99 0.70 3.98L0.70 3.98L0.70 3.98Q0.50 3.96 0.39 3.92L0.39 3.92L0.39 3.92Q0.28 3.88 0.28 3.71ZM22.82 3.65L22.82 3.65L22.82 3.65Q22.82 3.46 23.21 3.46L23.21 3.46L23.21 3.46Q23.27 3.46 23.39 3.47L23.39 3.47L23.39 3.47Q23.52 3.49 23.59 3.49L23.59 3.49L23.59 3.49Q23.63 3.49 24.91 3.52L24.91 3.52L24.91 3.52Q26.18 3.56 27.01 3.56L27.01 3.56L27.01 3.56Q27.30 3.56 28.45 3.53L28.45 3.53L28.45 3.53Q29.61 3.50 29.81 3.50L29.81 3.50L29.81 3.50Q30.07 3.50 30.07 3.82L30.07 3.82L30.07 3.82Q30.07 3.91 29.99 4.38L29.99 4.38L29.99 4.38Q29.90 4.84 29.90 5.25L29.90 5.25L29.90 5.25Q29.90 5.38 29.83 5.47L29.83 5.47L29.83 5.47Q29.76 5.56 29.68 5.56L29.68 5.56L29.68 5.56Q29.47 5.56 29.47 5.26L29.47 5.26L29.47 5.26Q29.47 4.89 29.23 4.58L29.23 4.58L29.23 4.58Q28.99 4.27 28.64 4.26L28.64 4.26L28.64 4.26Q27.38 4.16 26.71 4.16L26.71 4.16L26.35 4.16L26.35 4.16Q25.62 4.16 25.50 4.26L25.50 4.26L25.50 4.26Q25.38 4.37 25.35 5.01L25.35 5.01L25.35 5.01Q25.30 6.02 25.30 7.35L25.30 7.35L25.30 7.35Q25.30 8.05 25.56 8.06L25.56 8.06L25.91 8.06L26.50 8.06L26.94 8.06L26.94 8.06Q27.78 8.06 28.06 8.01L28.06 8.01L28.06 8.01Q28.34 7.95 28.56 7.80L28.56 7.80L28.56 7.80Q28.83 7.62 28.88 7.28L28.88 7.28L28.88 7.28Q28.92 7.04 29.08 7.04L29.08 7.04L29.08 7.04Q29.20 7.04 29.23 7.08L29.23 7.08L29.23 7.08Q29.26 7.13 29.26 7.27L29.26 7.27L29.26 7.27Q29.26 7.36 29.20 7.91L29.20 7.91L29.20 7.91Q29.15 8.46 29.15 8.74L29.15 8.74L29.15 8.74Q29.15 9.00 29.17 9.24L29.17 9.24L29.17 9.24Q29.19 9.48 29.19 9.59L29.19 9.59L29.19 9.59Q29.19 9.94 29.09 9.94L29.09 9.94L29.09 9.94Q28.88 9.94 28.78 9.60L28.78 9.60L28.78 9.60Q28.59 9.02 28.43 8.92L28.43 8.92L28.43 8.92Q28.14 8.72 27.09 8.72L27.09 8.72L27.09 8.72Q26.67 8.72 26.41 8.72L26.41 8.72L26.41 8.72Q26.15 8.72 26.07 8.71L26.07 8.71L26.07 8.71Q26.00 8.71 25.95 8.71L25.95 8.71L25.95 8.71Q25.90 8.71 25.86 8.71L25.86 8.71L25.86 8.71Q25.28 8.71 25.28 8.97L25.28 8.97L25.28 8.97Q25.28 9.38 25.27 9.99L25.27 9.99L25.27 9.99Q25.26 10.60 25.26 10.99L25.26 10.99L25.26 11.55L25.26 11.55Q25.26 12.56 25.59 12.66L25.59 12.66L25.59 12.66Q25.94 12.77 26.19 12.77L26.19 12.77L26.19 12.77Q27.24 12.77 28.04 12.67L28.04 12.67L28.04 12.67Q28.83 12.57 29.23 12.42L29.23 12.42L29.23 12.42Q29.62 12.28 29.89 12.10L29.89 12.10L29.89 12.10Q30.16 11.93 30.23 11.78L30.23 11.78L30.23 11.78Q30.31 11.63 30.39 11.54L30.39 11.54L30.39 11.54Q30.46 11.44 30.55 11.44L30.55 11.44L30.55 11.44Q30.72 11.44 30.72 11.68L30.72 11.68L30.72 11.68Q30.72 12.28 30.11 12.89L30.11 12.89L30.11 12.89Q29.51 13.51 29.06 13.51L29.06 13.51L29.06 13.51Q28.06 13.51 26.79 13.44L26.79 13.44L26.79 13.44Q25.52 13.37 25.21 13.37L25.21 13.37L25.21 13.37Q24.82 13.37 24.23 13.43L24.23 13.43L24.23 13.43Q23.65 13.50 23.31 13.50L23.31 13.50L23.31 13.50Q23.02 13.50 23.02 13.36L23.02 13.36L23.02 13.36Q23.02 13.23 23.02 13.19L23.02 13.19L23.02 13.19Q23.02 13.15 23.06 13.12L23.06 13.12L23.06 13.12Q23.10 13.09 23.15 13.08L23.15 13.08L23.15 13.08Q23.20 13.08 23.33 13.03L23.33 13.03L23.33 13.03Q23.46 12.99 23.62 12.92L23.62 12.92L23.62 12.92Q23.95 12.75 24.06 12.26L24.06 12.26L24.06 12.26Q24.16 11.77 24.16 10.21L24.16 10.21L24.16 8.47L24.16 8.47Q24.16 8.09 24.18 7.29L24.18 7.29L24.18 7.29Q24.21 6.50 24.21 6.05L24.21 6.05L24.21 6.05Q24.21 5.67 24.18 4.77L24.18 4.77L24.18 4.77Q24.16 4.37 23.83 4.14L23.83 4.14L23.83 4.14Q23.49 3.92 23.04 3.91L23.04 3.91L23.04 3.91Q22.82 3.91 22.82 3.65ZM38.28 3.72L38.28 3.72L38.28 3.72Q38.28 3.51 38.40 3.51L38.40 3.51L38.40 3.51Q38.44 3.51 38.58 3.52L38.58 3.52L38.58 3.52Q38.72 3.53 38.96 3.53L38.96 3.53L38.96 3.53Q39.24 3.53 40.07 3.52L40.07 3.52L40.07 3.52Q40.91 3.51 41.01 3.51L41.01 3.51L41.01 3.51Q41.33 3.51 41.82 3.49L41.82 3.49L41.82 3.49Q42.31 3.47 42.55 3.47L42.55 3.47L42.55 3.47Q43.82 3.47 44.67 4.08L44.67 4.08L44.67 4.08Q45.53 4.69 45.53 5.81L45.53 5.81L45.53 5.81Q45.53 6.22 45.38 6.57L45.38 6.57L45.38 6.57Q45.23 6.93 45.03 7.15L45.03 7.15L45.03 7.15Q44.83 7.38 44.62 7.54L44.62 7.54L44.62 7.54Q44.42 7.70 44.27 7.79L44.27 7.79L44.27 7.79Q44.13 7.88 44.13 7.90L44.13 7.90L44.13 7.90Q44.13 7.94 44.37 8.00L44.37 8.00L44.37 8.00Q44.60 8.06 44.94 8.21L44.94 8.21L44.94 8.21Q45.28 8.36 45.60 8.61L45.60 8.61L45.60 8.61Q45.93 8.86 46.17 9.36L46.17 9.36L46.17 9.36Q46.41 9.86 46.41 10.53L46.41 10.53L46.41 10.53Q46.41 11.13 46.06 11.82L46.06 11.82L46.06 11.82Q45.71 12.50 45.23 12.82L45.23 12.82L45.23 12.82Q44.62 13.26 44.09 13.40L44.09 13.40L44.09 13.40Q43.55 13.55 42.80 13.55L42.80 13.55L42.80 13.55Q42.24 13.55 41.31 13.47L41.31 13.47L41.31 13.47Q40.39 13.40 40.29 13.40L40.29 13.40L40.29 13.40Q40.14 13.40 39.74 13.43L39.74 13.43L39.74 13.43Q39.34 13.45 39.09 13.45L39.09 13.45L38.89 13.45L38.89 13.45Q38.60 13.45 38.60 13.24L38.60 13.24L38.60 13.24Q38.60 13.05 38.75 13.05L38.75 13.05L38.75 13.05Q38.84 13.05 38.93 13.04L38.93 13.04L38.93 13.04Q39.03 13.03 39.07 13.03L39.07 13.03L39.07 13.03Q39.20 13.03 39.32 12.94L39.32 12.94L39.32 12.94Q39.44 12.85 39.56 12.54L39.56 12.54L39.56 12.54Q39.69 12.22 39.70 11.73L39.70 11.73L39.70 11.73Q39.75 10.82 39.75 7.36L39.75 7.36L39.75 4.98L39.75 4.98Q39.75 4.89 39.71 4.75L39.71 4.75L39.71 4.75Q39.68 4.62 39.57 4.40L39.57 4.40L39.57 4.40Q39.47 4.19 39.19 4.04L39.19 4.04L39.19 4.04Q38.92 3.89 38.51 3.89L38.51 3.89L38.51 3.89Q38.28 3.89 38.28 3.72ZM40.81 12.15L40.81 12.15L40.81 12.15Q40.81 12.99 42.18 12.99L42.18 12.99L42.50 12.99L42.50 12.99Q43.26 12.99 43.71 12.92L43.71 12.92L43.71 12.92Q44.37 12.81 44.79 12.24L44.79 12.24L44.79 12.24Q45.22 11.66 45.22 10.86L45.22 10.86L45.22 10.86Q45.22 10.18 44.97 9.68L44.97 9.68L44.97 9.68Q44.72 9.18 44.39 8.93L44.39 8.93L44.39 8.93Q44.07 8.68 43.63 8.54L43.63 8.54L43.63 8.54Q43.19 8.40 42.94 8.37L42.94 8.37L42.94 8.37Q42.70 8.34 42.48 8.34L42.48 8.34L42.48 8.34Q42.03 8.34 41.74 8.34L41.74 8.34L41.74 8.34Q41.45 8.33 41.38 8.33L41.38 8.33L41.38 8.33Q41.30 8.33 41.25 8.32L41.25 8.32L41.25 8.32Q41.20 8.32 41.17 8.32L41.17 8.32L41.17 8.32Q41.05 8.32 40.99 8.35L40.99 8.35L40.99 8.35Q40.94 8.39 40.89 8.62L40.89 8.62L40.89 8.62Q40.84 8.85 40.83 9.28L40.83 9.28L40.83 9.28Q40.82 9.72 40.82 10.58L40.82 10.58L40.82 10.70L40.82 10.70Q40.82 11.21 40.82 11.54L40.82 11.54L40.82 11.54Q40.82 11.86 40.82 11.99L40.82 11.99L40.82 11.99Q40.81 12.12 40.81 12.15ZM40.89 5.40L40.89 5.81L40.89 5.81Q40.89 6.51 40.90 6.90L40.90 6.90L40.90 6.90Q40.91 7.29 40.94 7.50L40.94 7.50L40.94 7.50Q40.96 7.71 40.99 7.77L40.99 7.77L40.99 7.77Q41.02 7.83 41.08 7.83L41.08 7.83L41.08 7.83Q41.47 7.87 41.79 7.87L41.79 7.87L42.69 7.87L42.69 7.87Q43.57 7.87 44.01 7.41L44.01 7.41L44.01 7.41Q44.45 6.94 44.45 6.22L44.45 6.22L44.45 6.22Q44.45 5.43 43.71 4.70L43.71 4.70L43.71 4.70Q42.98 3.96 41.62 3.96L41.62 3.96L41.62 3.96Q41.19 3.96 41.04 4.22L41.04 4.22L41.04 4.22Q40.89 4.48 40.89 5.40L40.89 5.40ZM64.08 3.64L64.08 3.64L64.08 3.64Q64.08 3.51 64.20 3.49L64.20 3.49L64.20 3.49Q64.32 3.47 64.79 3.47L64.79 3.47L66.01 3.47L66.01 3.47Q66.36 3.47 67.30 3.44L67.30 3.44L67.30 3.44Q68.24 3.42 68.74 3.42L68.74 3.42L68.74 3.42Q69.71 3.42 70.67 3.71L70.67 3.71L70.67 3.71Q71.64 4.00 72.45 4.56L72.45 4.56L72.45 4.56Q73.26 5.11 73.77 6.00L73.77 6.00L73.77 6.00Q74.27 6.89 74.27 7.98L74.27 7.98L74.27 7.98Q74.27 8.96 74.14 9.68L74.14 9.68L74.14 9.68Q74.00 10.40 73.70 10.93L73.70 10.93L73.70 10.93Q73.39 11.45 73.08 11.78L73.08 11.78L73.08 11.78Q72.77 12.11 72.24 12.56L72.24 12.56L72.24 12.56Q71.82 12.89 71.02 13.19L71.02 13.19L71.02 13.19Q70.22 13.48 69.38 13.48L69.38 13.48L69.38 13.48Q69.30 13.48 67.96 13.45L67.96 13.45L67.96 13.45Q66.61 13.41 66.02 13.41L66.02 13.41L66.02 13.41Q65.53 13.41 65.11 13.45L65.11 13.45L65.11 13.45Q64.69 13.48 64.62 13.48L64.62 13.48L64.62 13.48Q64.29 13.48 64.29 13.30L64.29 13.30L64.29 13.30Q64.29 13.19 64.34 13.14L64.34 13.14L64.34 13.14Q64.39 13.09 64.55 13.05L64.55 13.05L64.55 13.05Q64.71 13.01 64.78 12.98L64.78 12.98L64.78 12.98Q65.00 12.88 65.19 12.61L65.19 12.61L65.19 12.61Q65.38 12.33 65.38 12.07L65.38 12.07L65.38 12.07Q65.38 11.28 65.39 10.07L65.39 10.07L65.39 10.07Q65.39 8.85 65.39 8.27L65.39 8.27L65.39 8.27Q65.39 7.77 65.39 6.70L65.39 6.70L65.39 6.70Q65.38 5.63 65.38 4.72L65.38 4.72L65.38 4.72Q65.38 4.48 65.15 4.23L65.15 4.23L65.15 4.23Q64.92 3.99 64.64 3.98L64.64 3.98L64.64 3.98Q64.44 3.96 64.35 3.95L64.35 3.95L64.35 3.95Q64.26 3.93 64.17 3.86L64.17 3.86L64.17 3.86Q64.08 3.78 64.08 3.64ZM66.56 11.47L66.56 11.47L66.56 11.47Q66.56 11.73 66.56 11.90L66.56 11.90L66.56 11.90Q66.57 12.07 66.62 12.21L66.62 12.21L66.62 12.21Q66.67 12.35 66.70 12.40L66.70 12.40L66.70 12.40Q66.72 12.46 66.86 12.53L66.86 12.53L66.86 12.53Q67.00 12.60 67.08 12.62L67.08 12.62L67.08 12.62Q67.16 12.64 67.41 12.71L67.41 12.71L67.41 12.71Q67.66 12.78 67.83 12.82L67.83 12.82L67.83 12.82Q68.32 12.96 68.85 12.96L68.85 12.96L69.13 12.96L69.13 12.96Q70.08 12.96 70.76 12.69L70.76 12.69L70.76 12.69Q71.43 12.42 72.04 11.83L72.04 11.83L72.04 11.83Q73.08 10.84 73.08 8.61L73.08 8.61L73.08 8.61Q73.08 7.49 72.64 6.58L72.64 6.58L72.64 6.58Q72.20 5.67 71.48 5.13L71.48 5.13L71.48 5.13Q70.77 4.59 69.94 4.30L69.94 4.30L69.94 4.30Q69.12 4.02 68.28 4.02L68.28 4.02L68.28 4.02Q67.90 4.02 67.72 4.02L67.72 4.02L67.72 4.02Q67.55 4.02 67.32 4.05L67.32 4.05L67.32 4.05Q67.09 4.09 67.01 4.11L67.01 4.11L67.01 4.11Q66.93 4.13 66.82 4.25L66.82 4.25L66.82 4.25Q66.71 4.37 66.69 4.45L66.69 4.45L66.69 4.45Q66.67 4.54 66.63 4.78L66.63 4.78L66.63 4.78Q66.60 5.03 66.60 5.21L66.60 5.21L66.60 5.21Q66.60 5.39 66.60 5.80L66.60 5.80L66.60 5.80Q66.60 6.10 66.58 7.24L66.58 7.24L66.58 7.24Q66.57 8.39 66.57 8.48L66.57 8.48L66.57 8.48Q66.57 9.32 66.56 10.30L66.56 10.30L66.56 10.30Q66.56 11.28 66.56 11.47ZM82.17 3.65L82.17 3.65L82.17 3.65Q82.17 3.46 82.56 3.46L82.56 3.46L82.56 3.46Q82.61 3.46 82.74 3.47L82.74 3.47L82.74 3.47Q82.87 3.49 82.94 3.49L82.94 3.49L82.94 3.49Q82.98 3.49 84.25 3.52L84.25 3.52L84.25 3.52Q85.53 3.56 86.35 3.56L86.35 3.56L86.35 3.56Q86.65 3.56 87.80 3.53L87.80 3.53L87.80 3.53Q88.96 3.50 89.15 3.50L89.15 3.50L89.15 3.50Q89.42 3.50 89.42 3.82L89.42 3.82L89.42 3.82Q89.42 3.91 89.33 4.38L89.33 4.38L89.33 4.38Q89.25 4.84 89.25 5.25L89.25 5.25L89.25 5.25Q89.25 5.38 89.18 5.47L89.18 5.47L89.18 5.47Q89.11 5.56 89.03 5.56L89.03 5.56L89.03 5.56Q88.82 5.56 88.82 5.26L88.82 5.26L88.82 5.26Q88.82 4.89 88.58 4.58L88.58 4.58L88.58 4.58Q88.34 4.27 87.99 4.26L87.99 4.26L87.99 4.26Q86.73 4.16 86.06 4.16L86.06 4.16L85.69 4.16L85.69 4.16Q84.97 4.16 84.85 4.26L84.85 4.26L84.85 4.26Q84.73 4.37 84.70 5.01L84.70 5.01L84.70 5.01Q84.64 6.02 84.64 7.35L84.64 7.35L84.64 7.35Q84.64 8.05 84.91 8.06L84.91 8.06L85.26 8.06L85.85 8.06L86.28 8.06L86.28 8.06Q87.12 8.06 87.40 8.01L87.40 8.01L87.40 8.01Q87.68 7.95 87.91 7.80L87.91 7.80L87.91 7.80Q88.17 7.62 88.23 7.28L88.23 7.28L88.23 7.28Q88.27 7.04 88.42 7.04L88.42 7.04L88.42 7.04Q88.55 7.04 88.58 7.08L88.58 7.08L88.58 7.08Q88.61 7.13 88.61 7.27L88.61 7.27L88.61 7.27Q88.61 7.36 88.55 7.91L88.55 7.91L88.55 7.91Q88.49 8.46 88.49 8.74L88.49 8.74L88.49 8.74Q88.49 9.00 88.52 9.24L88.52 9.24L88.52 9.24Q88.54 9.48 88.54 9.59L88.54 9.59L88.54 9.59Q88.54 9.94 88.44 9.94L88.44 9.94L88.44 9.94Q88.23 9.94 88.13 9.60L88.13 9.60L88.13 9.60Q87.93 9.02 87.78 8.92L87.78 8.92L87.78 8.92Q87.49 8.72 86.44 8.72L86.44 8.72L86.44 8.72Q86.02 8.72 85.76 8.72L85.76 8.72L85.76 8.72Q85.50 8.72 85.42 8.71L85.42 8.71L85.42 8.71Q85.34 8.71 85.30 8.71L85.30 8.71L85.30 8.71Q85.25 8.71 85.20 8.71L85.20 8.71L85.20 8.71Q84.63 8.71 84.63 8.97L84.63 8.97L84.63 8.97Q84.63 9.38 84.62 9.99L84.62 9.99L84.62 9.99Q84.60 10.60 84.60 10.99L84.60 10.99L84.60 11.55L84.60 11.55Q84.60 12.56 84.94 12.66L84.94 12.66L84.94 12.66Q85.29 12.77 85.54 12.77L85.54 12.77L85.54 12.77Q86.59 12.77 87.38 12.67L87.38 12.67L87.38 12.67Q88.17 12.57 88.57 12.42L88.57 12.42L88.57 12.42Q88.97 12.28 89.24 12.10L89.24 12.10L89.24 12.10Q89.50 11.93 89.58 11.78L89.58 11.78L89.58 11.78Q89.66 11.63 89.73 11.54L89.73 11.54L89.73 11.54Q89.81 11.44 89.89 11.44L89.89 11.44L89.89 11.44Q90.06 11.44 90.06 11.68L90.06 11.68L90.06 11.68Q90.06 12.28 89.46 12.89L89.46 12.89L89.46 12.89Q88.86 13.51 88.41 13.51L88.41 13.51L88.41 13.51Q87.40 13.51 86.13 13.44L86.13 13.44L86.13 13.44Q84.87 13.37 84.56 13.37L84.56 13.37L84.56 13.37Q84.17 13.37 83.58 13.43L83.58 13.43L83.58 13.43Q82.99 13.50 82.66 13.50L82.66 13.50L82.66 13.50Q82.36 13.50 82.36 13.36L82.36 13.36L82.36 13.36Q82.36 13.23 82.36 13.19L82.36 13.19L82.36 13.19Q82.36 13.15 82.40 13.12L82.40 13.12L82.40 13.12Q82.45 13.09 82.49 13.08L82.49 13.08L82.49 13.08Q82.54 13.08 82.68 13.03L82.68 13.03L82.68 13.03Q82.81 12.99 82.96 12.92L82.96 12.92L82.96 12.92Q83.30 12.75 83.41 12.26L83.41 12.26L83.41 12.26Q83.51 11.77 83.51 10.21L83.51 10.21L83.51 8.47L83.51 8.47Q83.51 8.09 83.53 7.29L83.53 7.29L83.53 7.29Q83.55 6.50 83.55 6.05L83.55 6.05L83.55 6.05Q83.55 5.67 83.52 4.77L83.52 4.77L83.52 4.77Q83.51 4.37 83.17 4.14L83.17 4.14L83.17 4.14Q82.84 3.92 82.39 3.91L82.39 3.91L82.39 3.91Q82.17 3.91 82.17 3.65ZM97.62 3.70L97.62 3.70L97.62 3.70Q97.62 3.50 98.01 3.50L98.01 3.50L98.01 3.50Q98.08 3.50 98.55 3.53L98.55 3.53L98.55 3.53Q99.02 3.56 99.55 3.56L99.55 3.56L99.55 3.56Q99.68 3.56 100.00 3.54L100.00 3.54L100.00 3.54Q100.31 3.53 100.46 3.53L100.46 3.53L100.46 3.53Q100.79 3.53 100.86 3.56L100.86 3.56L100.86 3.56Q100.93 3.58 100.93 3.68L100.93 3.68L100.93 3.68Q100.93 3.77 100.79 3.84L100.79 3.84L100.79 3.84Q100.65 3.91 100.50 4.02L100.50 4.02L100.50 4.02Q100.35 4.14 100.35 4.34L100.35 4.34L100.35 4.34Q100.35 4.52 100.40 4.71L100.40 4.71L100.40 4.71Q100.45 4.90 100.62 5.29L100.62 5.29L100.62 5.29Q100.79 5.68 100.96 6.08L100.96 6.08L100.96 6.08Q101.14 6.47 101.53 7.34L101.53 7.34L101.53 7.34Q101.93 8.22 102.31 9.07L102.31 9.07L102.31 9.07Q103.49 11.77 103.71 11.77L103.71 11.77L103.71 11.77Q103.78 11.77 104.52 10.08L104.52 10.08L104.52 10.08Q105.25 8.39 105.97 6.54L105.97 6.54L105.97 6.54Q106.68 4.69 106.68 4.35L106.68 4.35L106.68 4.35Q106.68 4.13 106.52 4.01L106.52 4.01L106.52 4.01Q106.36 3.89 106.18 3.87L106.18 3.87L106.18 3.87Q105.99 3.85 105.83 3.80L105.83 3.80L105.83 3.80Q105.67 3.75 105.67 3.64L105.67 3.64L105.67 3.64Q105.67 3.54 105.72 3.52L105.72 3.52L105.72 3.52Q105.77 3.50 105.97 3.50L105.97 3.50L105.97 3.50Q106.01 3.50 106.29 3.51L106.29 3.51L106.29 3.51Q106.57 3.51 106.85 3.51L106.85 3.51L106.85 3.51Q107.10 3.51 107.41 3.50L107.41 3.50L107.41 3.50Q107.73 3.49 108.09 3.49L108.09 3.49L108.09 3.49Q108.36 3.49 108.36 3.68L108.36 3.68L108.36 3.68Q108.36 3.78 108.27 3.85L108.27 3.85L108.27 3.85Q108.18 3.92 108.05 3.98L108.05 3.98L108.05 3.98Q107.93 4.03 107.76 4.21L107.76 4.21L107.76 4.21Q107.59 4.40 107.46 4.69L107.46 4.69L104.34 11.80L104.34 11.80Q104.01 12.56 103.68 13.34L103.68 13.34L103.68 13.34Q103.53 13.72 103.49 13.79L103.49 13.79L103.49 13.79Q103.45 13.86 103.38 13.86L103.38 13.86L103.38 13.86Q103.12 13.86 102.75 12.89L102.75 12.89L102.75 12.89Q102.38 11.98 101.30 9.65L101.30 9.65L101.30 9.65Q100.77 8.48 100.34 7.50L100.34 7.50L100.34 7.50Q99.90 6.52 99.72 6.06L99.72 6.06L99.72 6.06Q99.53 5.60 99.36 5.24L99.36 5.24L99.36 5.24Q99.20 4.87 99.12 4.72L99.12 4.72L99.12 4.72Q99.04 4.56 98.92 4.44L98.92 4.44L98.92 4.44Q98.69 4.17 98.43 4.06L98.43 4.06L98.43 4.06Q98.17 3.95 98.01 3.96L98.01 3.96L98.01 3.96Q97.85 3.96 97.73 3.91L97.73 3.91L97.73 3.91Q97.62 3.86 97.62 3.70ZM115.92 3.65L115.92 3.65L115.92 3.65Q115.92 3.46 116.31 3.46L116.31 3.46L116.31 3.46Q116.37 3.46 116.49 3.47L116.49 3.47L116.49 3.47Q116.62 3.49 116.69 3.49L116.69 3.49L116.69 3.49Q116.73 3.49 118.01 3.52L118.01 3.52L118.01 3.52Q119.28 3.56 120.11 3.56L120.11 3.56L120.11 3.56Q120.40 3.56 121.56 3.53L121.56 3.53L121.56 3.53Q122.71 3.50 122.91 3.50L122.91 3.50L122.91 3.50Q123.17 3.50 123.17 3.82L123.17 3.82L123.17 3.82Q123.17 3.91 123.09 4.38L123.09 4.38L123.09 4.38Q123.00 4.84 123.00 5.25L123.00 5.25L123.00 5.25Q123.00 5.38 122.93 5.47L122.93 5.47L122.93 5.47Q122.86 5.56 122.78 5.56L122.78 5.56L122.78 5.56Q122.57 5.56 122.57 5.26L122.57 5.26L122.57 5.26Q122.57 4.89 122.33 4.58L122.33 4.58L122.33 4.58Q122.09 4.27 121.74 4.26L121.74 4.26L121.74 4.26Q120.48 4.16 119.81 4.16L119.81 4.16L119.45 4.16L119.45 4.16Q118.72 4.16 118.60 4.26L118.60 4.26L118.60 4.26Q118.48 4.37 118.45 5.01L118.45 5.01L118.45 5.01Q118.40 6.02 118.40 7.35L118.40 7.35L118.40 7.35Q118.40 8.05 118.66 8.06L118.66 8.06L119.01 8.06L119.60 8.06L120.04 8.06L120.04 8.06Q120.88 8.06 121.16 8.01L121.16 8.01L121.16 8.01Q121.44 7.95 121.66 7.80L121.66 7.80L121.66 7.80Q121.93 7.62 121.98 7.28L121.98 7.28L121.98 7.28Q122.02 7.04 122.18 7.04L122.18 7.04L122.18 7.04Q122.30 7.04 122.33 7.08L122.33 7.08L122.33 7.08Q122.36 7.13 122.36 7.27L122.36 7.27L122.36 7.27Q122.36 7.36 122.30 7.91L122.30 7.91L122.30 7.91Q122.25 8.46 122.25 8.74L122.25 8.74L122.25 8.74Q122.25 9.00 122.27 9.24L122.27 9.24L122.27 9.24Q122.29 9.48 122.29 9.59L122.29 9.59L122.29 9.59Q122.29 9.94 122.19 9.94L122.19 9.94L122.19 9.94Q121.98 9.94 121.88 9.60L121.88 9.60L121.88 9.60Q121.69 9.02 121.53 8.92L121.53 8.92L121.53 8.92Q121.24 8.72 120.19 8.72L120.19 8.72L120.19 8.72Q119.77 8.72 119.51 8.72L119.51 8.72L119.51 8.72Q119.25 8.72 119.17 8.71L119.17 8.71L119.17 8.71Q119.10 8.71 119.05 8.71L119.05 8.71L119.05 8.71Q119 8.71 118.96 8.71L118.96 8.71L118.96 8.71Q118.38 8.71 118.38 8.97L118.38 8.97L118.38 8.97Q118.38 9.38 118.37 9.99L118.37 9.99L118.37 9.99Q118.36 10.60 118.36 10.99L118.36 10.99L118.36 11.55L118.36 11.55Q118.36 12.56 118.69 12.66L118.69 12.66L118.69 12.66Q119.04 12.77 119.29 12.77L119.29 12.77L119.29 12.77Q120.34 12.77 121.14 12.67L121.14 12.67L121.14 12.67Q121.93 12.57 122.33 12.42L122.33 12.42L122.33 12.42Q122.72 12.28 122.99 12.10L122.99 12.10L122.99 12.10Q123.26 11.93 123.33 11.78L123.33 11.78L123.33 11.78Q123.41 11.63 123.49 11.54L123.49 11.54L123.49 11.54Q123.56 11.44 123.65 11.44L123.65 11.44L123.65 11.44Q123.82 11.44 123.82 11.68L123.82 11.68L123.82 11.68Q123.82 12.28 123.21 12.89L123.21 12.89L123.21 12.89Q122.61 13.51 122.16 13.51L122.16 13.51L122.16 13.51Q121.16 13.51 119.89 13.44L119.89 13.44L119.89 13.44Q118.62 13.37 118.31 13.37L118.31 13.37L118.31 13.37Q117.92 13.37 117.33 13.43L117.33 13.43L117.33 13.43Q116.75 13.50 116.41 13.50L116.41 13.50L116.41 13.50Q116.12 13.50 116.12 13.36L116.12 13.36L116.12 13.36Q116.12 13.23 116.12 13.19L116.12 13.19L116.12 13.19Q116.12 13.15 116.16 13.12L116.16 13.12L116.16 13.12Q116.20 13.09 116.25 13.08L116.25 13.08L116.25 13.08Q116.30 13.08 116.43 13.03L116.43 13.03L116.43 13.03Q116.56 12.99 116.72 12.92L116.72 12.92L116.72 12.92Q117.05 12.75 117.16 12.26L117.16 12.26L117.16 12.26Q117.26 11.77 117.26 10.21L117.26 10.21L117.26 8.47L117.26 8.47Q117.26 8.09 117.28 7.29L117.28 7.29L117.28 7.29Q117.31 6.50 117.31 6.05L117.31 6.05L117.31 6.05Q117.31 5.67 117.28 4.77L117.28 4.77L117.28 4.77Q117.26 4.37 116.93 4.14L116.93 4.14L116.93 4.14Q116.59 3.92 116.14 3.91L116.14 3.91L116.14 3.91Q115.92 3.91 115.92 3.65ZM131.38 3.71L131.38 3.71L131.38 3.71Q131.38 3.46 131.75 3.46L131.75 3.46L131.75 3.46Q131.81 3.46 131.94 3.47L131.94 3.47L131.94 3.47Q132.06 3.49 132.13 3.49L132.13 3.49L132.13 3.49Q132.27 3.49 132.66 3.51L132.66 3.51L132.66 3.51Q133.04 3.54 133.35 3.54L133.35 3.54L133.35 3.54Q133.78 3.54 134.27 3.51L134.27 3.51L134.27 3.51Q134.76 3.49 134.82 3.49L134.82 3.49L134.82 3.49Q135.06 3.49 135.06 3.63L135.06 3.63L135.06 3.63Q135.06 3.82 134.89 3.88L134.89 3.88L134.89 3.88Q134.72 3.95 134.52 3.97L134.52 3.97L134.52 3.97Q134.32 3.99 134.13 4.28L134.13 4.28L134.13 4.28Q133.94 4.56 133.91 5.14L133.91 5.14L133.91 5.14Q133.88 5.68 133.84 8.19L133.84 8.19L133.84 8.19Q133.80 10.70 133.80 10.99L133.80 10.99L133.80 11.55L133.80 11.55Q133.80 12.56 134.13 12.66L134.13 12.66L134.13 12.66Q134.48 12.77 134.74 12.77L134.74 12.77L134.74 12.77Q135.79 12.77 136.58 12.67L136.58 12.67L136.58 12.67Q137.37 12.57 137.77 12.42L137.77 12.42L137.77 12.42Q138.17 12.28 138.43 12.10L138.43 12.10L138.43 12.10Q138.70 11.93 138.78 11.78L138.78 11.78L138.78 11.78Q138.85 11.63 138.93 11.54L138.93 11.54L138.93 11.54Q139.01 11.44 139.09 11.44L139.09 11.44L139.09 11.44Q139.26 11.44 139.26 11.68L139.26 11.68L139.26 11.68Q139.26 12.28 138.66 12.89L138.66 12.89L138.66 12.89Q138.05 13.51 137.61 13.51L137.61 13.51L137.61 13.51Q136.60 13.51 135.33 13.44L135.33 13.44L135.33 13.44Q134.06 13.37 133.76 13.37L133.76 13.37L133.76 13.37Q133.36 13.37 132.85 13.43L132.85 13.43L132.85 13.43Q132.34 13.48 132.01 13.48L132.01 13.48L132.01 13.48Q131.60 13.48 131.60 13.31L131.60 13.31L131.60 13.31Q131.60 13.22 131.68 13.15L131.68 13.15L131.68 13.15Q131.75 13.09 131.82 13.09L131.82 13.09L131.82 13.09Q132.03 13.09 132.23 12.95L132.23 12.95L132.23 12.95Q132.48 12.75 132.59 12.23L132.59 12.23L132.59 12.23Q132.71 11.70 132.71 10.21L132.71 10.21L132.71 8.47L132.71 8.47Q132.71 8.09 132.73 7.29L132.73 7.29L132.73 7.29Q132.75 6.50 132.75 6.05L132.75 6.05L132.75 6.05Q132.75 5.67 132.72 4.77L132.72 4.77L132.72 4.77Q132.71 4.37 132.37 4.14L132.37 4.14L132.37 4.14Q132.03 3.92 131.59 3.91L131.59 3.91L131.59 3.91Q131.45 3.91 131.41 3.86L131.41 3.86L131.41 3.86Q131.38 3.81 131.38 3.71ZM147.15 8.69L147.15 8.69L147.15 8.69Q147.15 6.34 148.57 4.84L148.57 4.84L148.57 4.84Q149.98 3.33 152.57 3.33L152.57 3.33L152.57 3.33Q153.78 3.33 154.74 3.68L154.74 3.68L154.74 3.68Q155.71 4.03 156.27 4.54L156.27 4.54L156.27 4.54Q156.83 5.05 157.21 5.71L157.21 5.71L157.21 5.71Q157.58 6.37 157.72 6.92L157.72 6.92L157.72 6.92Q157.86 7.48 157.86 7.95L157.86 7.95L157.86 7.95Q157.86 9.86 157.12 11.16L157.12 11.16L157.12 11.16Q156.38 12.47 155.17 13.07L155.17 13.07L155.17 13.07Q153.96 13.66 152.38 13.66L152.38 13.66L152.38 13.66Q150.71 13.66 149.50 12.94L149.50 12.94L149.50 12.94Q148.29 12.21 147.72 11.10L147.72 11.10L147.72 11.10Q147.15 10.00 147.15 8.69ZM148.39 7.98L148.39 7.98L148.39 7.98Q148.39 8.54 148.54 9.19L148.54 9.19L148.54 9.19Q148.69 9.84 149.04 10.54L149.04 10.54L149.04 10.54Q149.39 11.23 149.89 11.78L149.89 11.78L149.89 11.78Q150.39 12.33 151.15 12.69L151.15 12.69L151.15 12.69Q151.91 13.05 152.82 13.05L152.82 13.05L152.82 13.05Q153.30 13.05 153.83 12.90L153.83 12.90L153.83 12.90Q154.35 12.75 154.87 12.45L154.87 12.45L154.87 12.45Q155.39 12.14 155.79 11.70L155.79 11.70L155.79 11.70Q156.20 11.26 156.46 10.62L156.46 10.62L156.46 10.62Q156.72 9.98 156.72 9.24L156.72 9.24L156.72 9.24Q156.72 6.71 155.39 5.30L155.39 5.30L155.39 5.30Q154.06 3.89 152.10 3.89L152.10 3.89L152.10 3.89Q150.56 3.89 149.47 4.93L149.47 4.93L149.47 4.93Q148.39 5.96 148.39 7.98ZM165.76 3.72L165.76 3.72L165.76 3.72Q165.76 3.50 166.08 3.50L166.08 3.50L166.08 3.50Q166.12 3.50 166.24 3.49L166.24 3.49L166.24 3.49Q166.35 3.49 166.60 3.49L166.60 3.49L166.60 3.49Q166.67 3.49 166.99 3.51L166.99 3.51L166.99 3.51Q167.30 3.53 167.44 3.53L167.44 3.53L167.44 3.53Q167.75 3.53 168.63 3.51L168.63 3.51L168.63 3.51Q169.51 3.49 169.75 3.49L169.75 3.49L169.75 3.49Q171.07 3.49 172.02 4.15L172.02 4.15L172.02 4.15Q172.97 4.82 172.97 6.06L172.97 6.06L172.97 6.06Q172.97 6.75 172.72 7.29L172.72 7.29L172.72 7.29Q172.47 7.83 172.11 8.13L172.11 8.13L172.11 8.13Q171.75 8.44 171.31 8.64L171.31 8.64L171.31 8.64Q170.87 8.85 170.53 8.91L170.53 8.91L170.53 8.91Q170.18 8.97 169.92 8.97L169.92 8.97L169.92 8.97Q169.47 8.97 169.01 8.87L169.01 8.87L169.01 8.87Q168.55 8.76 168.55 8.65L168.55 8.65L168.55 8.65Q168.55 8.44 168.73 8.44L168.73 8.44L168.73 8.44Q168.80 8.44 169.02 8.50L169.02 8.50L169.02 8.50Q169.23 8.55 169.44 8.55L169.44 8.55L169.44 8.55Q169.76 8.55 170.13 8.46L170.13 8.46L170.13 8.46Q170.49 8.37 170.88 8.17L170.88 8.17L170.88 8.17Q171.28 7.97 171.53 7.55L171.53 7.55L171.53 7.55Q171.78 7.14 171.78 6.59L171.78 6.59L171.78 6.59Q171.78 5.66 171.02 4.85L171.02 4.85L171.02 4.85Q170.27 4.05 168.94 4.05L168.94 4.05L168.94 4.05Q168.50 4.05 168.35 4.30L168.35 4.30L168.35 4.30Q168.20 4.56 168.20 5.47L168.20 5.47L168.20 5.47Q168.20 8.39 168.18 8.80L168.18 8.80L168.18 8.80Q168.17 9.21 168.17 11.26L168.17 11.26L168.17 11.26Q168.17 12.49 168.74 12.87L168.74 12.87L168.74 12.87Q168.90 12.96 169.13 12.99L169.13 12.99L169.13 12.99Q169.36 13.02 169.51 13.01L169.51 13.01L169.51 13.01Q169.67 13.01 169.79 13.07L169.79 13.07L169.79 13.07Q169.90 13.13 169.90 13.30L169.90 13.30L169.90 13.30Q169.90 13.54 169.58 13.54L169.58 13.54L169.58 13.54Q169.26 13.54 168.45 13.50L168.45 13.50L168.45 13.50Q167.64 13.47 167.58 13.47L167.58 13.47L167.58 13.47Q167.44 13.47 167.03 13.50L167.03 13.50L167.03 13.50Q166.61 13.52 166.28 13.52L166.28 13.52L166.28 13.52Q165.84 13.52 165.84 13.37L165.84 13.37L165.84 13.37Q165.84 13.29 165.87 13.23L165.87 13.23L165.87 13.23Q165.89 13.17 165.91 13.14L165.91 13.14L165.91 13.14Q165.93 13.10 166.00 13.08L166.00 13.08L166.00 13.08Q166.07 13.05 166.10 13.03L166.10 13.03L166.10 13.03Q166.12 13.02 166.23 13.00L166.23 13.00L166.23 13.00Q166.33 12.98 166.38 12.96L166.38 12.96L166.38 12.96Q166.40 12.95 166.46 12.94L166.46 12.94L166.46 12.94Q166.52 12.94 166.54 12.93L166.54 12.93L166.54 12.93Q166.56 12.92 166.61 12.89L166.61 12.89L166.61 12.89Q166.66 12.85 166.68 12.79L166.68 12.79L166.68 12.79Q166.71 12.73 166.76 12.62L166.76 12.62L166.76 12.62Q166.81 12.52 166.87 12.35L166.87 12.35L166.87 12.35Q166.96 12.08 167.02 10.25L167.02 10.25L167.02 10.25Q167.08 8.41 167.08 7.41L167.08 7.41L167.08 7.41Q167.08 6.54 167.07 5.80L167.07 5.80L167.07 5.80Q167.06 5.07 167.06 5.03L167.06 5.03L167.06 5.03Q167.06 4.65 166.82 4.28L166.82 4.28L166.82 4.28Q166.59 3.91 166.04 3.91L166.04 3.91L166.04 3.91Q165.76 3.91 165.76 3.72ZM180.45 3.71L180.45 3.71L180.45 3.71Q180.45 3.50 180.70 3.50L180.70 3.50L180.70 3.50Q180.78 3.50 181.08 3.53L181.08 3.53L181.08 3.53Q181.38 3.56 181.44 3.56L181.44 3.56L181.44 3.56Q181.65 3.56 182.01 3.54L182.01 3.54L182.01 3.54Q182.38 3.53 182.49 3.53L182.49 3.53L182.49 3.53Q182.76 3.53 182.83 3.72L182.83 3.72L182.83 3.72Q182.99 4.09 183.43 5.03L183.43 5.03L183.43 5.03Q183.86 5.98 184.12 6.54L184.12 6.54L184.12 6.54Q184.38 7.10 184.79 7.97L184.79 7.97L184.79 7.97Q185.19 8.83 185.44 9.37L185.44 9.37L185.44 9.37Q185.70 9.91 185.97 10.46L185.97 10.46L185.97 10.46Q186.24 11.00 186.39 11.26L186.39 11.26L186.39 11.26Q186.54 11.52 186.58 11.52L186.58 11.52L186.58 11.52Q186.62 11.52 186.67 11.47L186.67 11.47L186.67 11.47Q186.72 11.42 186.77 11.34L186.77 11.34L186.77 11.34Q186.82 11.26 186.85 11.17L186.85 11.17L186.85 11.17Q186.89 11.09 186.95 10.96L186.95 10.96L186.95 10.96Q187.01 10.82 187.04 10.75L187.04 10.75L188.85 7.03L188.85 7.03Q189.15 6.40 189.39 5.89L189.39 5.89L189.39 5.89Q189.63 5.39 189.77 5.08L189.77 5.08L189.77 5.08Q189.91 4.77 190.01 4.55L190.01 4.55L190.01 4.55Q190.11 4.33 190.16 4.21L190.16 4.21L190.16 4.21Q190.20 4.10 190.22 4.04L190.22 4.04L190.22 4.04Q190.25 3.98 190.26 3.94L190.26 3.94L190.26 3.94Q190.27 3.91 190.29 3.88L190.29 3.88L190.29 3.88Q190.30 3.85 190.34 3.75L190.34 3.75L190.34 3.75Q190.37 3.65 190.41 3.62L190.41 3.62L190.41 3.62Q190.44 3.58 190.55 3.54L190.55 3.54L190.55 3.54Q190.65 3.50 190.82 3.50L190.82 3.50L190.82 3.50Q191.09 3.50 191.32 3.51L191.32 3.51L191.32 3.51Q191.55 3.53 192.02 3.53L192.02 3.53L192.02 3.53Q192.26 3.53 192.26 3.71L192.26 3.71L192.26 3.71Q192.26 3.85 192.17 3.91L192.17 3.91L192.17 3.91Q192.08 3.98 191.80 4.02L191.80 4.02L191.80 4.02Q191.45 4.06 191.31 4.37L191.31 4.37L191.31 4.37Q191.17 4.68 191.17 5.54L191.17 5.54L191.17 5.54Q191.17 7.43 191.25 8.97L191.25 8.97L191.25 8.97Q191.34 10.50 191.34 10.89L191.34 10.89L191.34 10.89Q191.34 12.29 191.56 12.68L191.56 12.68L191.56 12.68Q191.79 13.06 192.50 13.06L192.50 13.06L192.50 13.06Q192.60 13.06 192.68 13.13L192.68 13.13L192.68 13.13Q192.75 13.20 192.75 13.26L192.75 13.26L192.75 13.26Q192.75 13.34 192.74 13.38L192.74 13.38L192.74 13.38Q192.72 13.43 192.68 13.45L192.68 13.45L192.68 13.45Q192.64 13.48 192.60 13.48L192.60 13.48L192.60 13.48Q192.56 13.48 192.44 13.48L192.44 13.48L192.44 13.48Q192.02 13.48 191.62 13.45L191.62 13.45L191.62 13.45Q191.21 13.43 191.02 13.43L191.02 13.43L191.02 13.43Q190.62 13.43 190.20 13.46L190.20 13.46L190.20 13.46Q189.78 13.50 189.56 13.50L189.56 13.50L189.56 13.50Q189.31 13.50 189.31 13.30L189.31 13.30L189.31 13.30Q189.31 13.17 189.42 13.12L189.42 13.12L189.42 13.12Q189.53 13.06 189.68 13.05L189.68 13.05L189.68 13.05Q189.83 13.03 189.99 12.87L189.99 12.87L189.99 12.87Q190.15 12.71 190.22 12.39L190.22 12.39L190.22 12.39Q190.27 12.11 190.27 11.49L190.27 11.49L190.27 11.49Q190.27 11.05 190.25 10.42L190.25 10.42L190.25 10.42Q190.23 9.79 190.20 9.19L190.20 9.19L190.20 9.19Q190.18 8.60 190.15 8.07L190.15 8.07L190.15 8.07Q190.12 7.55 190.11 7.21L190.11 7.21L190.08 6.87L190.08 6.87Q190.08 6.27 189.95 6.27L189.95 6.27L189.95 6.27Q189.94 6.27 189.91 6.29L189.91 6.29L189.91 6.29Q189.88 6.30 189.86 6.33L189.86 6.33L189.86 6.33Q189.84 6.36 189.81 6.38L189.81 6.38L189.81 6.38Q189.78 6.41 189.76 6.47L189.76 6.47L189.76 6.47Q189.73 6.54 189.70 6.58L189.70 6.58L189.70 6.58Q189.67 6.62 189.63 6.70L189.63 6.70L189.63 6.70Q189.59 6.78 189.56 6.83L189.56 6.83L189.56 6.83Q189.53 6.89 189.48 6.99L189.48 6.99L189.48 6.99Q189.43 7.08 189.41 7.15L189.41 7.15L187.46 11.09L187.46 11.09Q187.12 11.77 186.75 12.56L186.75 12.56L186.75 12.56Q186.49 13.09 186.44 13.18L186.44 13.18L186.44 13.18Q186.38 13.27 186.30 13.27L186.30 13.27L186.30 13.27Q186.17 13.27 186.09 13.15L186.09 13.15L186.09 13.15Q186.00 13.03 185.84 12.63L185.84 12.63L185.84 12.63Q185.67 12.22 185.54 11.96L185.54 11.96L185.54 11.96Q182.98 6.75 182.91 6.65L182.91 6.65L182.91 6.65Q182.87 6.59 182.83 6.59L182.83 6.59L182.83 6.59Q182.71 6.59 182.71 7.15L182.71 7.15L182.71 7.15Q182.70 8.25 182.64 9.31L182.64 9.31L182.64 9.31Q182.59 10.37 182.59 10.85L182.59 10.85L182.59 11.48L182.59 11.48Q182.59 11.84 182.61 12.04L182.61 12.04L182.61 12.04Q182.63 12.24 182.72 12.49L182.72 12.49L182.72 12.49Q182.81 12.75 183.05 12.89L183.05 12.89L183.05 12.89Q183.29 13.03 183.67 13.08L183.67 13.08L183.67 13.08Q183.74 13.08 183.80 13.13L183.80 13.13L183.80 13.13Q183.86 13.17 183.86 13.23L183.86 13.23L183.86 13.23Q183.86 13.38 183.82 13.43L183.82 13.43L183.82 13.43Q183.78 13.48 183.65 13.48L183.65 13.48L183.65 13.48Q183.37 13.48 182.81 13.45L182.81 13.45L182.81 13.45Q182.25 13.43 182.20 13.43L182.20 13.43L182.20 13.43Q182.17 13.43 181.79 13.45L181.79 13.45L181.79 13.45Q181.41 13.47 181.05 13.47L181.05 13.47L181.05 13.47Q180.94 13.47 180.89 13.45L180.89 13.45L180.89 13.45Q180.84 13.44 180.80 13.39L180.80 13.39L180.80 13.39Q180.75 13.34 180.75 13.24L180.75 13.24L180.75 13.24Q180.75 13.13 180.88 13.09L180.88 13.09L180.88 13.09Q181.01 13.05 181.17 13.04L181.17 13.04L181.17 13.04Q181.33 13.03 181.52 12.82L181.52 12.82L181.52 12.82Q181.72 12.60 181.82 12.18L181.82 12.18L181.82 12.18Q181.89 11.87 181.99 9.74L181.99 9.74L181.99 9.74Q182.08 7.62 182.08 6.59L182.08 6.59L182.08 6.59Q182.08 5.19 181.81 4.66L181.81 4.66L181.81 4.66Q181.54 4.13 180.63 3.92L180.63 3.92L180.63 3.92Q180.45 3.88 180.45 3.71ZM200.31 3.65L200.31 3.65L200.31 3.65Q200.31 3.46 200.70 3.46L200.70 3.46L200.70 3.46Q200.76 3.46 200.89 3.47L200.89 3.47L200.89 3.47Q201.01 3.49 201.08 3.49L201.08 3.49L201.08 3.49Q201.12 3.49 202.40 3.52L202.40 3.52L202.40 3.52Q203.67 3.56 204.50 3.56L204.50 3.56L204.50 3.56Q204.79 3.56 205.95 3.53L205.95 3.53L205.95 3.53Q207.10 3.50 207.30 3.50L207.30 3.50L207.30 3.50Q207.56 3.50 207.56 3.82L207.56 3.82L207.56 3.82Q207.56 3.91 207.48 4.38L207.48 4.38L207.48 4.38Q207.40 4.84 207.40 5.25L207.40 5.25L207.40 5.25Q207.40 5.38 207.33 5.47L207.33 5.47L207.33 5.47Q207.26 5.56 207.17 5.56L207.17 5.56L207.17 5.56Q206.96 5.56 206.96 5.26L206.96 5.26L206.96 5.26Q206.96 4.89 206.72 4.58L206.72 4.58L206.72 4.58Q206.49 4.27 206.14 4.26L206.14 4.26L206.14 4.26Q204.88 4.16 204.20 4.16L204.20 4.16L203.84 4.16L203.84 4.16Q203.11 4.16 202.99 4.26L202.99 4.26L202.99 4.26Q202.87 4.37 202.85 5.01L202.85 5.01L202.85 5.01Q202.79 6.02 202.79 7.35L202.79 7.35L202.79 7.35Q202.79 8.05 203.06 8.06L203.06 8.06L203.41 8.06L203.99 8.06L204.43 8.06L204.43 8.06Q205.27 8.06 205.55 8.01L205.55 8.01L205.55 8.01Q205.83 7.95 206.05 7.80L206.05 7.80L206.05 7.80Q206.32 7.62 206.37 7.28L206.37 7.28L206.37 7.28Q206.42 7.04 206.57 7.04L206.57 7.04L206.57 7.04Q206.70 7.04 206.72 7.08L206.72 7.08L206.72 7.08Q206.75 7.13 206.75 7.27L206.75 7.27L206.75 7.27Q206.75 7.36 206.70 7.91L206.70 7.91L206.70 7.91Q206.64 8.46 206.64 8.74L206.64 8.74L206.64 8.74Q206.64 9.00 206.66 9.24L206.66 9.24L206.66 9.24Q206.68 9.48 206.68 9.59L206.68 9.59L206.68 9.59Q206.68 9.94 206.58 9.94L206.58 9.94L206.58 9.94Q206.37 9.94 206.28 9.60L206.28 9.60L206.28 9.60Q206.08 9.02 205.93 8.92L205.93 8.92L205.93 8.92Q205.63 8.72 204.58 8.72L204.58 8.72L204.58 8.72Q204.16 8.72 203.90 8.72L203.90 8.72L203.90 8.72Q203.64 8.72 203.57 8.71L203.57 8.71L203.57 8.71Q203.49 8.71 203.44 8.71L203.44 8.71L203.44 8.71Q203.39 8.71 203.35 8.71L203.35 8.71L203.35 8.71Q202.78 8.71 202.78 8.97L202.78 8.97L202.78 8.97Q202.78 9.38 202.76 9.99L202.76 9.99L202.76 9.99Q202.75 10.60 202.75 10.99L202.75 10.99L202.75 11.55L202.75 11.55Q202.75 12.56 203.08 12.66L203.08 12.66L203.08 12.66Q203.43 12.77 203.69 12.77L203.69 12.77L203.69 12.77Q204.74 12.77 205.53 12.67L205.53 12.67L205.53 12.67Q206.32 12.57 206.72 12.42L206.72 12.42L206.72 12.42Q207.12 12.28 207.38 12.10L207.38 12.10L207.38 12.10Q207.65 11.93 207.72 11.78L207.72 11.78L207.72 11.78Q207.80 11.63 207.88 11.54L207.88 11.54L207.88 11.54Q207.96 11.44 208.04 11.44L208.04 11.44L208.04 11.44Q208.21 11.44 208.21 11.68L208.21 11.68L208.21 11.68Q208.21 12.28 207.61 12.89L207.61 12.89L207.61 12.89Q207.00 13.51 206.56 13.51L206.56 13.51L206.56 13.51Q205.55 13.51 204.28 13.44L204.28 13.44L204.28 13.44Q203.01 13.37 202.71 13.37L202.71 13.37L202.71 13.37Q202.31 13.37 201.73 13.43L201.73 13.43L201.73 13.43Q201.14 13.50 200.80 13.50L200.80 13.50L200.80 13.50Q200.51 13.50 200.51 13.36L200.51 13.36L200.51 13.36Q200.51 13.23 200.51 13.19L200.51 13.19L200.51 13.19Q200.51 13.15 200.55 13.12L200.55 13.12L200.55 13.12Q200.59 13.09 200.64 13.08L200.64 13.08L200.64 13.08Q200.69 13.08 200.82 13.03L200.82 13.03L200.82 13.03Q200.96 12.99 201.11 12.92L201.11 12.92L201.11 12.92Q201.45 12.75 201.55 12.26L201.55 12.26L201.55 12.26Q201.66 11.77 201.66 10.21L201.66 10.21L201.66 8.47L201.66 8.47Q201.66 8.09 201.68 7.29L201.68 7.29L201.68 7.29Q201.70 6.50 201.70 6.05L201.70 6.05L201.70 6.05Q201.70 5.67 201.67 4.77L201.67 4.77L201.67 4.77Q201.66 4.37 201.32 4.14L201.32 4.14L201.32 4.14Q200.98 3.92 200.54 3.91L200.54 3.91L200.54 3.91Q200.31 3.91 200.31 3.65ZM215.77 3.77L215.77 3.77L215.77 3.77Q215.77 3.68 215.87 3.60L215.87 3.60L215.87 3.60Q215.96 3.53 216.12 3.53L216.12 3.53L216.12 3.53Q216.20 3.53 216.40 3.54L216.40 3.54L216.40 3.54Q216.59 3.54 216.65 3.54L216.65 3.54L216.65 3.54Q216.86 3.54 217.04 3.53L217.04 3.53L217.04 3.53Q217.22 3.51 217.34 3.51L217.34 3.51L217.34 3.51Q217.46 3.51 217.63 3.59L217.63 3.59L217.63 3.59Q217.80 3.67 217.83 3.75L217.83 3.75L217.83 3.75Q217.85 3.79 217.98 3.94L217.98 3.94L217.98 3.94Q218.11 4.09 218.32 4.33L218.32 4.33L218.32 4.33Q218.53 4.56 218.69 4.79L218.69 4.79L218.69 4.79Q220.60 7.27 223.79 10.77L223.79 10.77L223.79 10.77Q223.87 10.86 223.99 10.99L223.99 10.99L223.99 10.99Q224.11 11.12 224.16 11.18L224.16 11.18L224.16 11.18Q224.21 11.24 224.27 11.30L224.27 11.30L224.27 11.30Q224.32 11.35 224.36 11.38L224.36 11.38L224.36 11.38Q224.39 11.40 224.42 11.40L224.42 11.40L224.42 11.40Q224.56 11.40 224.56 10.53L224.56 10.53L224.56 8.89L224.56 8.89Q224.56 7.95 224.55 7.31L224.55 7.31L224.55 7.31Q224.55 6.66 224.54 6.38L224.54 6.38L224.54 6.38Q224.53 6.09 224.53 6.02L224.53 6.02L224.53 5.92L224.53 5.92Q224.53 5.45 224.47 5.11L224.47 5.11L224.47 5.11Q224.41 4.77 224.32 4.59L224.32 4.59L224.32 4.59Q224.24 4.41 224.08 4.28L224.08 4.28L224.08 4.28Q223.92 4.16 223.80 4.12L223.80 4.12L223.80 4.12Q223.69 4.09 223.48 4.05L223.48 4.05L223.48 4.05Q223.27 4.00 223.19 3.98L223.19 3.98L223.19 3.98Q222.91 3.89 222.91 3.74L222.91 3.74L222.91 3.74Q222.91 3.53 223.17 3.53L223.17 3.53L223.17 3.53Q223.26 3.53 223.85 3.54L223.85 3.54L223.85 3.54Q224.43 3.54 224.50 3.54L224.50 3.54L224.50 3.54Q224.84 3.54 225.25 3.53L225.25 3.53L225.25 3.53Q225.67 3.51 225.76 3.51L225.76 3.51L225.76 3.51Q226.00 3.51 226.09 3.56L226.09 3.56L226.09 3.56Q226.18 3.61 226.18 3.75L226.18 3.75L226.18 3.75Q226.18 3.81 226.11 3.86L226.11 3.86L226.11 3.86Q226.03 3.91 225.95 3.94L225.95 3.94L225.95 3.94Q225.86 3.98 225.78 4.00L225.78 4.00L225.69 4.03L225.69 4.03Q225.23 4.28 225.23 5.61L225.23 5.61L225.23 6.15L225.23 6.15Q225.23 7.21 225.15 9.83L225.15 9.83L225.15 9.83Q225.08 12.46 225.08 13.08L225.08 13.08L225.08 13.36L225.08 13.36Q225.08 13.68 224.88 13.68L224.88 13.68L224.88 13.68Q224.76 13.68 224.66 13.58L224.66 13.58L224.66 13.58Q220.01 8.19 219.11 7.17L219.11 7.17L219.11 7.17Q218.20 6.16 218.11 6.16L218.11 6.16L218.11 6.16Q217.97 6.16 217.97 7.11L217.97 7.11L217.97 7.11Q217.97 8.44 217.91 9.97L217.91 9.97L217.91 9.97Q217.85 11.51 217.85 11.65L217.85 11.65L217.85 11.65Q217.85 12.28 218.07 12.61L218.07 12.61L218.07 12.61Q218.29 12.94 218.54 12.98L218.54 12.98L218.54 12.98Q218.79 13.02 219.01 13.07L219.01 13.07L219.01 13.07Q219.23 13.12 219.23 13.26L219.23 13.26L219.23 13.26Q219.23 13.41 219.18 13.45L219.18 13.45L219.18 13.45Q219.13 13.50 219.00 13.50L219.00 13.50L219.00 13.50Q218.90 13.50 218.56 13.48L218.56 13.48L218.56 13.48Q218.22 13.47 217.50 13.47L217.50 13.47L217.50 13.47Q217.38 13.47 216.99 13.48L216.99 13.48L216.99 13.48Q216.59 13.50 216.31 13.50L216.31 13.50L216.31 13.50Q216.01 13.50 216.01 13.27L216.01 13.27L216.01 13.27Q216.01 13.15 216.19 13.11L216.19 13.11L216.19 13.11Q216.37 13.08 216.64 12.89L216.64 12.89L216.64 12.89Q216.90 12.71 217.04 12.21L217.04 12.21L217.04 12.21Q217.13 11.89 217.25 9.60L217.25 9.60L217.25 9.60Q217.38 7.32 217.38 6.45L217.38 6.45L217.38 6.45Q217.38 5.25 217.04 4.65L217.04 4.65L217.04 4.65Q216.71 4.06 215.95 3.98L215.95 3.98L215.95 3.98Q215.77 3.96 215.77 3.77ZM233.94 5.32L233.94 5.32L233.94 5.32Q233.94 4.76 234.08 3.88L234.08 3.88L234.08 3.88Q234.08 3.85 234.09 3.78L234.09 3.78L234.09 3.78Q234.09 3.71 234.10 3.69L234.10 3.69L234.10 3.69Q234.11 3.67 234.11 3.62L234.11 3.62L234.11 3.62Q234.12 3.57 234.14 3.55L234.14 3.55L234.14 3.55Q234.15 3.53 234.17 3.49L234.17 3.49L234.17 3.49Q234.19 3.46 234.22 3.44L234.22 3.44L234.22 3.44Q234.25 3.43 234.29 3.42L234.29 3.42L234.29 3.42Q234.33 3.40 234.39 3.39L234.39 3.39L234.39 3.39Q234.44 3.39 234.51 3.39L234.51 3.39L234.51 3.39Q234.74 3.39 235.70 3.44L235.70 3.44L235.70 3.44Q236.66 3.50 238.46 3.50L238.46 3.50L238.46 3.50Q241.54 3.50 242.77 3.43L242.77 3.43L242.77 3.43Q242.79 3.43 242.82 3.42L242.82 3.42L242.82 3.42Q242.86 3.42 242.87 3.42L242.87 3.42L242.87 3.42Q243.03 3.42 243.08 3.50L243.08 3.50L243.08 3.50Q243.14 3.58 243.14 3.65L243.14 3.65L243.14 3.65Q243.14 3.75 243.18 4.24L243.18 4.24L243.18 4.24Q243.22 4.73 243.22 4.79L243.22 4.79L243.22 4.79Q243.22 5.14 243.18 5.23L243.18 5.23L243.18 5.23Q243.14 5.32 243.00 5.32L243.00 5.32L243.00 5.32Q242.89 5.32 242.84 5.15L242.84 5.15L242.84 5.15Q242.73 4.75 242.65 4.60L242.65 4.60L242.65 4.60Q242.56 4.45 242.28 4.34L242.28 4.34L242.28 4.34Q242.00 4.23 241.43 4.23L241.43 4.23L239.61 4.23L239.61 4.23Q239.27 4.23 239.20 4.36L239.20 4.36L239.20 4.36Q239.12 4.49 239.12 5.12L239.12 5.12L239.12 5.81L239.12 5.81Q239.12 7.69 239.10 9.11L239.10 9.11L239.10 9.11Q239.08 10.54 239.08 10.93L239.08 10.93L239.08 10.93Q239.08 11.13 239.07 11.43L239.07 11.43L239.07 11.43Q239.06 11.73 239.06 11.84L239.06 11.84L239.06 11.84Q239.06 12.45 239.26 12.64L239.26 12.64L239.26 12.64Q239.44 12.81 239.67 12.90L239.67 12.90L239.67 12.90Q239.89 12.99 240.05 13.01L240.05 13.01L240.05 13.01Q240.21 13.02 240.32 13.08L240.32 13.08L240.32 13.08Q240.44 13.13 240.44 13.26L240.44 13.26L240.44 13.26Q240.44 13.41 240.37 13.45L240.37 13.45L240.37 13.45Q240.30 13.50 240.10 13.50L240.10 13.50L240.10 13.50Q239.93 13.50 239.36 13.44L239.36 13.44L239.36 13.44Q238.78 13.38 238.55 13.38L238.55 13.38L238.55 13.38Q238.38 13.38 237.87 13.43L237.87 13.43L237.87 13.43Q237.36 13.48 237.12 13.48L237.12 13.48L237.12 13.48Q236.60 13.48 236.60 13.26L236.60 13.26L236.60 13.26Q236.60 13.12 236.68 13.07L236.68 13.07L236.68 13.07Q236.77 13.02 237.01 12.98L237.01 12.98L237.01 12.98Q237.26 12.95 237.33 12.94L237.33 12.94L237.33 12.94Q237.80 12.82 237.86 12.38L237.86 12.38L237.86 12.38Q238.00 11.14 238.00 7.08L238.00 7.08L237.99 4.58L237.99 4.58Q237.99 4.31 237.83 4.25L237.83 4.25L237.83 4.25Q237.68 4.19 236.92 4.19L236.92 4.19L236.92 4.19Q235.94 4.19 235.44 4.24L235.44 4.24L235.44 4.24Q234.95 4.30 234.86 4.35L234.86 4.35L234.86 4.35Q234.78 4.40 234.67 4.54L234.67 4.54L234.67 4.54Q234.54 4.70 234.46 4.91L234.46 4.91L234.46 4.91Q234.39 5.11 234.37 5.24L234.37 5.24L234.37 5.24Q234.35 5.38 234.28 5.47L234.28 5.47L234.28 5.47Q234.22 5.56 234.09 5.56L234.09 5.56L234.09 5.56Q233.94 5.56 233.94 5.32Z"></path></g></svg>